<svg viewBox="0 0 700 620" xmlns="http://www.w3.org/2000/svg" font-family="Arial, sans-serif">
  <!-- Background -->
  <rect width="700" height="620" rx="12" fill="#F5F5F5" stroke="#CCCCCC" stroke-width="1.5"/>

  <!-- Header -->
  <rect width="700" height="50" rx="12" fill="#1E293B" stroke="none"/>
  <rect y="38" width="700" height="12" fill="#1E293B"/>
  <text x="20" y="32" font-size="14" fill="#94A3B8">← Salir de sesión</text>
  <text x="240" y="32" font-size="15" font-weight="bold" fill="#E2E8F0">Sesión de atenuación</text>
  <text x="600" y="32" font-size="14" fill="#94A3B8">12:34 ⏱</text>

  <!-- Image area -->
  <rect x="20" y="62" width="440" height="280" rx="10" fill="#2D1B1B" stroke="#5C3A3A" stroke-width="1"/>
  <rect x="150" y="155" width="180" height="80" rx="40" fill="#3D2525" stroke="#6B4444" stroke-width="1" stroke-dasharray="4"/>
  <text x="186" y="198" font-size="14" fill="#8B6666">Recuerdo con</text>
  <text x="182" y="218" font-size="14" fill="#8B6666">filtros aplicados</text>

  <!-- Metadata panel (right side) -->
  <rect x="474" y="62" width="210" height="280" rx="10" fill="#FFFFFF" stroke="#E2E8F0" stroke-width="1"/>
  <text x="490" y="90" font-size="13" font-weight="bold" fill="#333">Metadatos</text>
  <line x1="490" y1="98" x2="668" y2="98" stroke="#E2E8F0" stroke-width="1"/>
  <text x="490" y="120" font-size="12" fill="#666">📅 14 de marzo, 2022</text>
  <text x="490" y="142" font-size="12" fill="#666">📍 A-6, km 23</text>
  <text x="490" y="164" font-size="12" fill="#666">👥 Carlos, Diego†</text>

  <line x1="490" y1="178" x2="668" y2="178" stroke="#E2E8F0" stroke-width="1"/>
  <text x="490" y="200" font-size="12" font-weight="bold" fill="#333">Emoción dominante</text>
  <text x="490" y="220" font-size="12" fill="#C0392B">Terror · Nivel: 9/10</text>

  <!-- Emotion bar -->
  <rect x="490" y="230" width="170" height="6" rx="3" fill="#E8E8E8"/>
  <rect x="490" y="230" width="153" height="6" rx="3" fill="#E74C3C" opacity="0.7"/>

  <line x1="490" y1="250" x2="668" y2="250" stroke="#E2E8F0" stroke-width="1"/>
  <text x="490" y="270" font-size="12" font-weight="bold" fill="#333">Atenuación actual</text>
  <rect x="490" y="280" width="170" height="20" rx="4" fill="#E8F4FD" stroke="#B8D4E8" stroke-width="1"/>
  <rect x="490" y="280" width="68" height="20" rx="4" fill="#4A90D9"/>
  <text x="500" y="295" font-size="11" fill="#FFFFFF" font-weight="bold">40%</text>
  <text x="580" y="295" font-size="10" fill="#999">/ 70% límite</text>

  <text x="490" y="326" font-size="10" fill="#7F8C8D">Último ajuste: Mar 18:30</text>

  <!-- Attenuation slider section -->
  <rect x="20" y="356" width="660" height="110" rx="10" fill="#FFFFFF" stroke="#E2E8F0" stroke-width="1"/>
  <text x="36" y="382" font-size="14" font-weight="bold" fill="#333">Atenuación Emocional</text>

  <!-- Slider labels -->
  <text x="36" y="416" font-size="12" fill="#E74C3C">Intenso</text>
  <text x="600" y="416" font-size="12" fill="#3498DB">Suave</text>

  <!-- Slider track -->
  <rect x="100" y="408" width="490" height="8" rx="4" fill="#E8E8E8"/>
  <!-- Filled portion -->
  <rect x="100" y="408" width="280" height="8" rx="4" fill="#4A90D9"/>
  <!-- Limit zone (hatched) -->
  <rect x="443" y="406" width="4" height="12" rx="2" fill="#E67E22"/>
  <!-- Slider thumb -->
  <circle cx="380" cy="412" r="12" fill="#4A90D9" stroke="#FFFFFF" stroke-width="2.5"/>
  <text x="373" y="417" font-size="9" fill="#FFFFFF" font-weight="bold">40</text>

  <!-- Percentage and limit labels -->
  <text x="365" y="442" font-size="13" font-weight="bold" fill="#4A90D9">40%</text>
  <text x="422" y="442" font-size="11" fill="#E67E22">Límite: 70%</text>

  <!-- Limit explanation -->
  <text x="36" y="460" font-size="11" fill="#7F8C8D">ℹ️ Límite del 70% configurado por Dr. Molina (parte de tu plan de tratamiento)</text>

  <!-- Wellbeing indicator -->
  <rect x="20" y="478" width="320" height="76" rx="10" fill="#FFFFFF" stroke="#E2E8F0" stroke-width="1"/>
  <text x="36" y="502" font-size="13" font-weight="bold" fill="#333">¿Cómo te sientes?</text>

  <!-- Wellbeing slider -->
  <text x="36" y="534" font-size="11" fill="#E74C3C">😰</text>
  <rect x="58" y="526" width="220" height="6" rx="3" fill="#E8E8E8"/>
  <rect x="58" y="526" width="132" height="6" rx="3" fill="#8BC78F"/>
  <circle cx="190" cy="529" r="8" fill="#8BC78F" stroke="#FFF" stroke-width="2"/>
  <text x="290" y="534" font-size="11" fill="#27AE60">😌</text>
  <text x="84" y="550" font-size="10" fill="#999">Malestar moderado</text>

  <!-- Action buttons -->
  <rect x="354" y="478" width="154" height="76" rx="10" fill="#4A90D9"/>
  <text x="384" y="520" font-size="14" fill="#FFFFFF" font-weight="bold">💾 Guardar</text>
  <text x="400" y="538" font-size="11" fill="rgba(255,255,255,0.7)">ajuste</text>

  <rect x="522" y="478" width="154" height="76" rx="10" fill="#E8E8E8"/>
  <text x="556" y="520" font-size="14" fill="#666" font-weight="bold">↩ Deshacer</text>
  <text x="565" y="538" font-size="11" fill="#999">cambios</text>

  <!-- Safety footer -->
  <rect x="20" y="570" width="660" height="36" rx="8" fill="#FFF9E6" stroke="#F0E0A0" stroke-width="1"/>
  <text x="36" y="593" font-size="12" fill="#8B7730">💬 Puedes parar en cualquier momento →  Salir de sesión</text>
</svg>